# Blender 3.6.1
# www.blender.org
mtllib chairs.mtl
o Cubo
v -1.000000 -1.000000 5.501667
v -1.000000 -1.000000 -1.000000
v -1.000000 1.000000 -1.000000
v 1.000000 -1.000000 5.501667
v 1.000000 -1.000000 -1.000000
v 1.000000 1.000000 -1.000000
v -1.000000 1.000000 -3.286970
v -1.000000 -1.000000 -3.286970
v 1.000000 -1.000000 -3.286970
v 1.000000 1.000000 -3.286970
v -4.974916 2.650097 -1.040666
v -4.974916 0.650097 -1.040666
v -4.974916 2.650097 -3.327636
v -4.974916 0.650097 -3.327636
vn -0.0000 1.0000 -0.0000
vn 1.0000 -0.0000 -0.0000
vn -1.0000 -0.0000 -0.0000
vn -0.0000 0.9558 0.2940
vn -0.0000 -0.0000 -1.0000
vn -0.0102 -0.0000 0.9999
vn -0.0000 -1.0000 -0.0000
vn -0.3834 -0.9236 -0.0000
vn 0.0102 -0.0000 -0.9999
vn 0.3834 0.9236 -0.0000
vt 0.625000 0.250000
vt 0.625000 0.500000
vt 0.375000 0.500000
vt 0.375000 0.750000
vt 0.375000 0.250000
vt 0.375000 0.000000
vt 0.125000 0.750000
vt 0.000000 0.000000
s 0
f 3/1/1 6/2/1 10/2/1 7/1/1
f 5/3/2 6/2/2 4/4/2
f 3/1/3 2/5/3 1/6/3
f 6/2/4 3/1/4 1/7/4 4/4/4
f 8/5/5 7/1/5 10/2/5 9/3/5
f 2/5/6 3/1/6 11/1/6 12/5/6
f 6/2/2 5/3/2 9/3/2 10/2/2
f 5/8/7 2/8/7 8/8/7 9/8/7
f 12/5/3 11/1/3 13/1/3 14/5/3
f 8/8/8 2/8/8 12/8/8 14/8/8
f 7/1/9 8/5/9 14/5/9 13/1/9
f 3/1/10 7/1/10 13/1/10 11/1/10
