# Blender 3.6.1
# www.blender.org
mtllib Hedge.mtl
o Cube
v 5.000000 0.083200 -1.000000
v 5.000000 0.083200 1.000000
v -5.000000 0.083200 -1.000000
v -5.000000 0.083200 1.000000
v 3.014493 0.083200 -1.000000
v 1.014493 0.083200 -1.000000
v -0.985507 0.083200 -1.000000
v -2.985507 0.083200 -1.000000
v -2.985507 0.083200 1.000000
v -0.985507 0.083200 1.000000
v 1.014493 0.083200 1.000000
v 3.014493 0.083200 1.000000
v 5.000000 4.083200 -1.230939
v 5.000000 2.083200 -1.230939
v -5.000000 2.083200 1.256650
v -5.000000 4.083200 1.256650
v 5.000000 4.083200 1.256650
v 5.000000 2.083200 1.256650
v -5.000000 4.083200 -1.230939
v -5.000000 2.083200 -1.230939
v -2.985507 4.083200 -1.230939
v -2.985507 2.083200 -1.230939
v -0.985507 4.083200 -1.230939
v -0.985507 2.083200 -1.230939
v 1.014493 4.083200 -1.230939
v 1.014493 2.083200 -1.230939
v 3.014493 4.083200 -1.230939
v 3.014493 2.083200 -1.230939
v 3.014493 4.083200 1.256650
v 3.014493 2.083200 1.256650
v 1.014493 4.083200 1.256650
v 1.014493 2.083200 1.256650
v -0.985507 4.083200 1.256650
v -0.985507 2.083200 1.256650
v -2.985507 4.083200 1.256650
v -2.985507 2.083200 1.256650
v 5.000000 6.083200 0.749394
v 5.000000 5.331383 1.000000
v -5.000000 5.331383 1.000000
v -5.000000 6.083200 0.749394
v 3.014493 6.083200 0.749394
v 3.014493 5.331383 1.000000
v 1.014493 6.083200 0.749394
v 1.014493 5.331383 1.000000
v -0.985507 6.083200 0.749394
v -0.985507 5.331383 1.000000
v -2.985507 5.331383 1.000000
v -2.985507 6.083200 0.749394
v 5.000000 5.325499 -1.000000
v 5.000000 6.083200 -0.747433
v -5.000000 6.083200 -0.747433
v -5.000000 5.325499 -1.000000
v -2.985507 6.083200 -0.747433
v -2.985507 5.325499 -1.000000
v -0.985507 6.083200 -0.747433
v -0.985507 5.325499 -1.000000
v 1.014493 6.083200 -0.747433
v 1.014493 5.325499 -1.000000
v 3.014493 5.325499 -1.000000
v 3.014493 6.083200 -0.747433
vn -0.0000 1.0000 -0.0000
vn -0.0000 0.2014 0.9795
vn -0.0000 -1.0000 -0.0000
vn 1.0000 -0.0000 -0.0000
vn -1.0000 -0.0000 -0.0000
vn -0.0000 0.1828 -0.9832
vn -0.0000 -0.1273 0.9919
vn -0.0000 -0.0000 1.0000
vn -0.0000 -0.1147 -0.9934
vn -0.0000 -0.0000 -1.0000
vn -0.0000 0.3162 0.9487
vn -0.0000 0.3162 -0.9487
vt 0.448041 0.969534
vt 0.596350 0.967624
vt 0.594667 0.836964
vt 0.446358 0.838874
vt 0.541667 0.949638
vt 0.593674 0.949638
vt 0.593674 1.000000
vt 0.541667 1.000000
vt 0.325362 0.500000
vt 0.375000 0.500000
vt 0.375000 0.750000
vt 0.325362 0.750000
vt 0.824638 0.531571
vt 0.875000 0.531571
vt 0.875000 0.718674
vt 0.824638 0.718674
vt 0.541667 0.500000
vt 0.593429 0.500000
vt 0.625000 0.531571
vt 0.625000 0.718674
vt 0.593674 0.750000
vt 0.541667 0.750000
vt 0.541667 0.000000
vt 0.593674 0.000000
vt 0.625000 0.031326
vt 0.625000 0.218429
vt 0.593429 0.250000
vt 0.541667 0.250000
vt 0.724638 0.531571
vt 0.774638 0.531571
vt 0.774638 0.718674
vt 0.724638 0.718674
vt 0.541667 0.400362
vt 0.593429 0.400362
vt 0.593429 0.450362
vt 0.541667 0.450362
vt 0.674638 0.531571
vt 0.724638 0.531571
vt 0.724638 0.718674
vt 0.674638 0.718674
vt 0.125000 0.500000
vt 0.175362 0.500000
vt 0.175362 0.750000
vt 0.125000 0.750000
vt 0.225362 0.500000
vt 0.225362 0.750000
vt 0.275362 0.500000
vt 0.275362 0.750000
vt 0.593429 0.300362
vt 0.541667 0.300362
vt 0.541667 0.350362
vt 0.593429 0.350362
vt 0.593674 0.799638
vt 0.541667 0.799638
vt 0.593674 0.849638
vt 0.541667 0.849638
vt 0.750327 0.652379
vt 0.751192 0.810576
vt 0.599102 0.811407
vt 0.598238 0.653210
vt 0.597891 0.655288
vt 0.596462 0.808814
vt 0.448861 0.807440
vt 0.450291 0.653913
vt 0.375000 0.899638
vt 0.458333 0.899638
vt 0.458333 0.949638
vt 0.375000 0.949638
vt 0.541667 0.899638
vt 0.375000 0.849638
vt 0.458333 0.849638
vt 0.375000 0.799638
vt 0.458333 0.799638
vt 0.458333 0.750000
vt 0.375000 0.400362
vt 0.458333 0.400362
vt 0.458333 0.450362
vt 0.375000 0.450362
vt 0.375000 0.350362
vt 0.458333 0.350362
vt 0.375000 0.300362
vt 0.458333 0.300362
vt 0.375000 0.250000
vt 0.458333 0.250000
vt 0.458333 0.500000
vt 0.375000 0.000000
vt 0.458333 0.000000
vt 0.458333 1.000000
vt 0.375000 1.000000
vt 0.625000 0.949638
vt 0.625000 1.000000
vt 0.625000 0.750000
vt 0.625000 0.799638
vt 0.625000 0.849638
vt 0.625000 0.899638
vt 0.593674 0.899638
vt 0.600192 0.832761
vt 0.446987 0.833974
vt 0.446227 0.737988
vt 0.599433 0.736776
vt 0.625000 0.450362
vt 0.625000 0.500000
vt 0.625000 0.250000
vt 0.625000 0.300362
vt 0.625000 0.350362
vt 0.625000 0.400362
vt 0.625000 0.531571
vt 0.674638 0.531571
s 0
g Cube_Material
usemtl Material
f 55/1/1 53/2/1 48/3/1 45/4/1
f 35/5/2 47/6/2 39/7/2 16/8/2
f 5/9/3 1/10/3 2/11/3 12/12/3
f 53/13/1 51/14/1 40/15/1 48/16/1
f 13/17/4 49/18/4 50/19/4 37/20/4 38/21/4 17/22/4
f 16/23/5 39/24/5 40/25/5 51/26/5 52/27/5 19/28/5
f 57/29/1 55/30/1 45/31/1 43/32/1
f 25/33/6 58/34/6 59/35/6 27/36/6
f 60/37/1 57/38/1 43/39/1 41/40/1
f 3/41/3 8/42/3 9/43/3 4/44/3
f 8/42/3 7/45/3 10/46/3 9/43/3
f 7/45/3 6/47/3 11/48/3 10/46/3
f 6/47/3 5/9/3 12/12/3 11/48/3
f 19/28/6 52/27/6 54/49/6 21/50/6
f 23/51/6 56/52/6 58/34/6 25/33/6
f 21/50/6 54/49/6 56/52/6 23/51/6
f 17/22/2 38/21/2 42/53/2 29/54/2
f 29/54/2 42/53/2 44/55/2 31/56/2
f 31/57/2 44/58/2 46/59/2 33/60/2
f 33/61/2 46/62/2 47/63/2 35/64/2
f 10/65/7 34/66/7 36/67/7 9/68/7
f 34/66/8 33/69/8 35/5/8 36/67/8
f 11/70/7 32/71/7 34/66/7 10/65/7
f 32/71/8 31/56/8 33/69/8 34/66/8
f 12/72/7 30/73/7 32/71/7 11/70/7
f 30/73/8 29/54/8 31/56/8 32/71/8
f 2/11/7 18/74/7 30/73/7 12/72/7
f 18/74/8 17/22/8 29/54/8 30/73/8
f 6/75/9 26/76/9 28/77/9 5/78/9
f 26/76/10 25/33/10 27/36/10 28/77/10
f 7/79/9 24/80/9 26/76/9 6/75/9
f 24/80/10 23/51/10 25/33/10 26/76/10
f 8/81/9 22/82/9 24/80/9 7/79/9
f 22/82/10 21/50/10 23/51/10 24/80/10
f 3/83/9 20/84/9 22/82/9 8/81/9
f 20/84/10 19/28/10 21/50/10 22/82/10
f 5/78/9 28/77/9 14/85/9 1/10/9
f 28/77/10 27/36/10 13/17/10 14/85/10
f 1/10/4 14/85/4 18/74/4 2/11/4
f 14/85/4 13/17/4 17/22/4 18/74/4
f 4/86/5 15/87/5 20/84/5 3/83/5
f 15/87/5 16/23/5 19/28/5 20/84/5
f 9/68/7 36/67/7 15/88/7 4/89/7
f 36/67/8 35/5/8 16/8/8 15/88/8
f 48/90/11 40/91/11 39/7/11 47/6/11
f 37/92/11 41/93/11 42/53/11 38/21/11
f 41/93/11 43/94/11 44/55/11 42/53/11
f 43/94/11 45/95/11 46/96/11 44/55/11
f 45/97/11 48/98/11 47/99/11 46/100/11
f 27/36/6 59/35/6 49/18/6 13/17/6
f 60/101/12 50/102/12 49/18/12 59/35/12
f 51/103/12 53/104/12 54/49/12 52/27/12
f 53/104/12 55/105/12 56/52/12 54/49/12
f 55/105/12 57/106/12 58/34/12 56/52/12
f 57/106/12 60/101/12 59/35/12 58/34/12
f 50/107/1 60/108/1 41/40/1 37/20/1
