# Blender 3.6.1
# www.blender.org
mtllib Ramp.mtl
o Cubo
v -1.000000 -1.000000 5.501667
v -1.000000 -1.000000 -1.000000
v -1.000000 1.000000 -1.000000
v 1.000000 -1.000000 5.501667
v 1.000000 -1.000000 -1.000000
v 1.000000 1.000000 -1.000000
v -1.000000 1.000000 -3.286970
v -1.000000 -1.000000 -3.286970
v 1.000000 -1.000000 -3.286970
v 1.000000 1.000000 -3.286970
v -4.974916 2.650097 -1.040666
v -4.974916 0.650097 -1.040666
v -4.974916 2.650097 -3.327636
v -4.974916 0.650097 -3.327636
v 1.000000 -0.600000 4.201334
v 1.000000 -0.200000 2.901000
v 1.000000 0.200000 1.600667
v 1.000000 0.600000 0.300333
v -1.000000 0.600000 0.300333
v -1.000000 0.200000 1.600667
v -1.000000 -0.200000 2.901000
v -1.000000 -0.600000 4.201334
v 1.000000 -1.000000 4.201334
v 1.000000 -1.000000 2.901000
v 1.000000 -1.000000 1.600667
v 1.000000 -1.000000 0.300333
v -1.794983 1.330019 -1.008133
v -2.589967 1.660039 -1.016267
v -3.384950 1.990058 -1.024400
v -4.179934 2.320077 -1.032533
v -4.179933 0.320078 -1.032533
v -3.384950 -0.009942 -1.024400
v -2.589966 -0.339961 -1.016266
v -1.794983 -0.669981 -1.008133
v -4.179933 0.320078 -3.319503
v -3.384950 -0.009942 -3.311369
v -2.589966 -0.339961 -3.303236
v -1.794983 -0.669981 -3.295103
v -4.179933 2.320077 -3.319503
v -3.384950 1.990058 -3.311369
v -2.589966 1.660039 -3.303236
v -1.794983 1.330019 -3.295103
v 0.000000 1.000000 -1.000000
v 0.000000 -1.000000 5.501667
v 0.000000 -1.000000 -3.286970
v 0.000000 1.000000 -3.286970
v 0.000000 0.600000 0.300333
v 0.000000 0.200000 1.600667
v 0.000000 -0.200000 2.901000
v 0.000000 -0.600000 4.201334
v 1.000000 1.000000 -2.143485
v -1.000000 1.000000 -2.143485
v 1.000000 -1.000000 -2.143485
v -4.974916 2.650097 -2.184151
v -1.794983 1.330019 -2.151618
v -2.589967 1.660039 -2.159751
v -3.384950 1.990058 -2.167885
v -4.179934 2.320077 -2.176018
v 0.000000 1.000000 -2.143485
v -1.000000 0.000000 -1.000000
v 1.000000 0.000000 -1.000000
v -1.000000 0.000000 -3.286970
v 1.000000 0.000000 -3.286970
v -4.974916 1.650097 -1.040666
v -4.974916 1.650097 -3.327636
v -1.794983 0.330019 -3.295103
v -2.589966 0.660039 -3.303236
v -3.384950 0.990058 -3.311369
v -4.179933 1.320077 -3.319503
v -1.794983 0.330019 -1.008133
v -2.589967 0.660039 -1.016267
v -3.384950 0.990058 -1.024400
v -4.179934 1.320078 -1.032533
v 0.000000 0.000000 -3.286970
v 1.000000 0.000000 -2.143485
v 1.000000 -0.200000 0.300333
v 1.000000 -0.400000 1.600666
v 1.000000 -0.600000 2.901000
v 1.000000 -0.800000 4.201334
v -1.000000 -1.000000 0.301021
v -1.000000 -1.000000 1.602292
v -1.000000 -1.000000 2.899359
v -1.000000 -1.000000 4.201447
v -1.000000 -0.800009 4.201391
v -1.000000 -0.400125 1.601480
v -1.000000 -0.599874 2.900180
v -1.000000 -0.200053 0.300677
vn -0.0000 1.0000 -0.0000
vn 1.0000 -0.0000 -0.0000
vn -1.0000 -0.0000 -0.0000
vn -0.0000 0.9558 0.2940
vn -0.0000 -0.0000 -1.0000
vn -0.0102 -0.0000 0.9999
vn 0.0102 -0.0000 -0.9999
vn 0.3834 0.9236 -0.0000
vt 0.625000 0.375000
vt 0.625000 0.500000
vt 0.375000 0.500000
vt 0.500000 0.500000
vt 0.475000 0.550000
vt 0.375000 0.550000
vt 0.625000 0.250000
vt 0.500000 0.250000
vt 0.474993 0.199987
vt 0.575000 0.200000
vt 0.325000 0.675000
vt 0.225000 0.650000
vt 0.125000 0.750000
vt 0.250000 0.750000
vt 0.500000 0.375000
vt 0.500000 0.250000
vt 0.375000 0.250000
vt 0.625000 0.250000
vt 0.625000 0.250000
vt -0.000879 0.625665
vt 0.255993 0.625665
vt 0.255993 0.120283
vt -0.000879 0.120283
vt 0.550000 0.450000
vt 0.525000 0.350000
vt 0.425000 0.450000
vt 0.475000 0.525000
vt 0.242188 0.130469
vt 0.000000 0.133594
vt 0.000000 0.627012
vt 0.242188 0.627012
vt 0.252637 0.120274
vt -0.002344 0.120274
vt -0.002344 0.627246
vt 0.252637 0.627246
vt 0.382921 0.513905
vt 0.759929 0.589307
vt 0.625000 0.250000
vt 0.625000 0.250000
vt 0.500000 0.250000
vt 0.482676 0.376780
vt 0.669097 0.376780
vt 0.669097 0.122433
vt 0.482676 0.122433
vt 0.500000 0.250000
vt 0.500000 0.250000
vt 0.509570 0.123965
vt 0.252637 0.123965
vt 0.252637 0.629199
vt 0.509570 0.629199
vt 0.519345 0.126326
vt 0.314223 0.126326
vt 0.314223 0.624385
vt 0.519345 0.624385
vt 0.575000 0.550000
vt 0.525000 0.600000
vt 0.425000 0.700000
vt 0.375000 0.750000
vt 0.361232 0.376508
vt 0.002436 0.376508
vt 0.002436 0.878770
vt 0.361232 0.878770
vt 0.678575 0.660724
vt 0.490079 0.668661
vt 0.375000 0.375000
vt 0.375000 0.250000
vt 0.375000 0.250000
vt 0.494693 0.380717
vt 0.707887 0.377567
vt 0.744110 0.620102
vt 0.527765 0.627976
vt 0.450000 0.600000
vt 0.375000 0.600000
vt 0.400000 0.700000
vt 0.425000 0.650000
vt 0.375000 0.650000
vt 0.375000 0.700000
vt 0.475000 0.650000
vt 0.449984 0.149969
vt 0.525000 0.150000
vt 0.425016 0.100032
vt 0.475000 0.100000
vt 0.399999 0.049998
vt 0.425000 0.050000
vt 0.375000 0.000000
vt 0.375000 0.100063
vt 0.375000 0.049996
vt 0.375000 0.199974
vt 0.375000 0.149938
s 0
g Cubo_Cement
usemtl Cement
f 59/1/1 51/2/1 10/2/1 46/1/1
f 5/3/2 61/4/2 76/5/2 26/6/2
f 3/7/3 60/8/3 87/9/3 19/10/3
f 50/11/4 22/12/4 1/13/4 44/14/4
f 74/15/5 46/1/5 10/2/5 63/4/5
f 73/8/6 30/7/6 11/7/6 64/8/6
f 75/4/2 53/3/2 9/3/2 63/4/2
f 69/16/7 35/17/7 14/17/7 65/8/7
f 58/18/8 39/18/8 13/7/8 54/19/8
f 43/20/4 3/21/4 19/22/4 47/23/4
f 47/24/4 19/25/4 20/26/4 48/27/4
f 48/28/4 20/29/4 21/30/4 49/31/4
f 49/32/4 21/33/4 22/34/4 50/35/4
f 52/7/8 7/7/8 42/18/8 55/7/8
f 55/36/8 42/18/8 41/18/8 56/37/8
f 56/38/8 41/18/8 40/7/8 57/39/8
f 57/39/8 40/7/8 39/18/8 58/18/8
f 62/8/7 8/17/7 38/17/7 66/40/7
f 66/40/7 38/17/7 37/17/7 67/16/7
f 67/16/7 37/17/7 36/17/7 68/8/7
f 68/8/7 36/17/7 35/17/7 69/16/7
f 60/41/6 3/42/6 27/43/6 70/44/6
f 70/8/6 27/7/6 28/39/6 71/45/6
f 71/45/6 28/39/6 29/7/6 72/46/6
f 72/46/6 29/7/6 30/7/6 73/8/6
f 16/47/4 49/48/4 50/49/4 15/50/4
f 17/51/4 48/52/4 49/53/4 16/54/4
f 18/55/4 47/24/4 48/27/4 17/56/4
f 6/2/4 43/1/4 47/24/4 18/55/4
f 62/8/5 7/7/5 46/1/5 74/15/5
f 15/57/4 50/11/4 44/14/4 4/58/4
f 52/7/1 59/1/1 46/1/1 7/7/1
f 3/7/1 43/1/1 59/1/1 52/7/1
f 29/7/8 57/39/8 58/18/8 30/7/8
f 28/39/8 56/38/8 57/39/8 29/7/8
f 27/7/8 55/7/8 56/38/8 28/39/8
f 3/7/8 52/7/8 55/7/8 27/7/8
f 30/7/8 58/18/8 54/19/8 11/7/8
f 61/4/2 5/3/2 53/3/2 75/4/2
f 43/59/1 6/60/1 51/61/1 59/62/1
f 6/63/2 61/64/2 75/4/2 51/2/2
f 8/17/5 62/8/5 74/15/5 45/65/5
f 32/17/6 72/46/6 73/8/6 31/17/6
f 33/66/6 71/45/6 72/46/6 32/17/6
f 34/67/6 70/8/6 71/45/6 33/66/6
f 2/68/6 60/69/6 70/70/6 34/71/6
f 40/7/7 68/8/7 69/16/7 39/18/7
f 41/18/7 67/16/7 68/8/7 40/7/7
f 42/18/7 66/40/7 67/16/7 41/18/7
f 7/7/7 62/8/7 66/40/7 42/18/7
f 39/18/7 69/16/7 65/8/7 13/7/7
f 51/2/2 75/4/2 63/4/2 10/2/2
f 31/17/6 73/8/6 64/8/6 12/17/6
f 45/65/5 74/15/5 63/4/5 9/3/5
f 26/6/2 76/5/2 77/72/2 25/73/2
f 4/58/2 79/74/2 15/57/2
f 76/5/2 61/4/2 6/2/2 18/55/2
f 25/73/2 77/72/2 78/75/2 24/76/2
f 17/56/2 77/72/2 76/5/2 18/55/2
f 24/76/2 78/75/2 79/74/2 23/77/2
f 16/78/2 78/75/2 77/72/2 17/56/2
f 23/77/2 79/74/2 4/58/2
f 15/57/2 79/74/2 78/75/2 16/78/2
f 19/10/3 87/9/3 85/79/3 20/80/3
f 20/80/3 85/79/3 86/81/3 21/82/3
f 21/82/3 86/81/3 84/83/3 22/84/3
f 22/84/3 84/83/3 1/85/3
f 84/83/3 86/81/3 82/86/3 83/87/3
f 87/9/3 60/8/3 2/17/3 80/88/3
f 1/85/3 84/83/3 83/87/3
f 85/79/3 87/9/3 80/88/3 81/89/3
f 86/81/3 85/79/3 81/89/3 82/86/3
